# xmcd
#
# Track frame offsets:
#	150
#	18620
#	37368
#	58818
#	76314
#	98201
#	119314
#	138120
#	154428
#	173725
#	191459
#	210571
#	224128
#	245472
#	261344
#	280153
#	292488
#
# Disc length: 4159 seconds
#
# Revision: 0
# Processed by: cddbd v1.5PL3 Copyright (c) Steve Scherf et al.
# Submitted via: dBpowerAMP V4.0
#
DISCID=12103d11
DTITLE=Billy Ocean - The Very Best Of Billy Ocean
DYEAR=1997
DGENRE=R&B
TTITLE0=Caribbean Queen (No More Love On The Run)
TTITLE1=When The Going Gets Tough, The Tough Gets Going
TTITLE2=Get Outta My Dreams, Get Into My Car
TTITLE3=Suddenly
TTITLE4=There'll Be Sad Songs (To Make You Cry)
TTITLE5=The Long And Winding Road
TTITLE6=Loverboy
TTITLE7=Tear Down These Walls
TTITLE8=Colour Of Love
TTITLE9=Mystery Lady
TTITLE10=Love Zone
TTITLE11=Love Really Hurts Without You
TTITLE12=Nights (Feel Like Getting Down)
TTITLE13=Red Light Spells Danger
TTITLE14=Love Is Forever
TTITLE15=L. O. D. (Love On Delivery)
TTITLE16=Everything's So Different Without You
EXTD=
EXTT0=
EXTT1=
EXTT2=
EXTT3=
EXTT4=
EXTT5=
EXTT6=
EXTT7=
EXTT8=
EXTT9=
EXTT10=
EXTT11=
EXTT12=
EXTT13=
EXTT14=
EXTT15=
EXTT16=
PLAYORDER=
